<svg width="128" height="128" viewBox="0 0 128 128" fill="none" xmlns="http://www.w3.org/2000/svg">
    <g clip-path="url(#clip0_754_833)">
        <rect x="0" y="0" width="128" height="128" rx="20" fill="#0d7139" />
        <path
            d="M103.517 61.6389C95.9848 46.9431 81.0736 37 64 37C46.9264 37 32.0111 46.95 24.4833 61.6403C24.1655 62.2688 24 62.9632 24 63.6674C24 64.3716 24.1655 65.066 24.4833 65.6945C32.0152 80.3904 46.9264 90.3334 64 90.3334C81.0736 90.3334 95.989 80.3834 103.517 65.6931C103.834 65.0646 104 64.3703 104 63.666C104 62.9618 103.834 62.2674 103.517 61.6389ZM64 83.6668C60.0444 83.6668 56.1776 82.4938 52.8886 80.2961C49.5996 78.0985 47.0361 74.9749 45.5224 71.3204C44.0086 67.6659 43.6126 63.6445 44.3843 59.7649C45.156 55.8853 47.0608 52.3216 49.8578 49.5246C52.6549 46.7275 56.2186 44.8227 60.0982 44.051C63.9778 43.2793 67.9992 43.6753 71.6537 45.1891C75.3082 46.7028 78.4318 49.2663 80.6294 52.5553C82.8271 55.8443 84 59.7111 84 63.6667C84.0013 66.2935 83.4849 68.8948 82.4802 71.3219C81.4756 73.749 80.0024 75.9543 78.145 77.8117C76.2876 79.6692 74.0823 81.1423 71.6552 82.1469C69.2281 83.1516 66.6268 83.668 64 83.6668ZM64 50.3334C62.8099 50.35 61.6275 50.527 60.4847 50.8597C61.4267 52.1399 61.8787 53.7152 61.7588 55.3C61.6389 56.8848 60.9551 58.3741 59.8312 59.498C58.7074 60.6218 57.218 61.3057 55.6332 61.4255C54.0484 61.5454 52.4731 61.0934 51.193 60.1514C50.4641 62.837 50.5957 65.6835 51.5693 68.2903C52.5428 70.8972 54.3094 73.1331 56.6203 74.6833C58.9312 76.2336 61.67 77.0202 64.4513 76.9323C67.2327 76.8444 69.9164 75.8866 72.1248 74.1936C74.3333 72.5005 75.9552 70.1576 76.7623 67.4945C77.5694 64.8314 77.521 61.9822 76.6241 59.3481C75.7271 56.7139 74.0266 54.4273 71.762 52.8102C69.4974 51.1931 66.7827 50.3268 64 50.3334Z"
            fill="#FAFBFC" />
    </g>
    <defs>
        <clipPath id="clip0_754_833">
            <rect width="128" height="128" fill="white" />
        </clipPath>
    </defs>
</svg>